<?xml version="1.0" encoding="UTF-8" standalone="no"?>
<!DOCTYPE svg PUBLIC "-//W3C//DTD SVG 1.1//EN" "http://www.w3.org/Graphics/SVG/1.1/DTD/svg11.dtd">
<svg version="1.1" xmlns="http://www.w3.org/2000/svg" xmlns:xlink="http://www.w3.org/1999/xlink" preserveAspectRatio="xMidYMid meet" viewBox="0 0 2000 740" width="2000" height="740"><defs><path d="" id="e3YHfuq6VF"></path><path d="M1990 572.74C1673.13 576.48 1366.16 586.76 1069.1 603.59C772.03 620.42 435.05 649.99 58.17 692.3" id="bU49LRxqd"></path><path d="M1990 69.17C1665.23 72.64 1350.61 82.18 1046.13 97.79C741.66 113.39 396.28 140.82 10 180.06" id="d2BLd9N3bs"></path><path d="M1987.26 67.23L1987.26 572.74" id="kuTAtLWBg"></path><path d="M9 177.64L60.36 692.3" id="b1YhqnT61w"></path><path d="M1985.14 262.79L1939.45 262.79L1937.49 115.9L1692.34 122.28L1692.34 72.17" id="a26AhCAUUN"></path><path d="M1942.4 572.74L1940.43 386.06L1985.14 386.06" id="a5xlNIyqcg"></path><path d="M271.55 668.52C279.08 708.15 301.52 727.63 338.85 726.98L333.45 662.13" id="bFWb6uwz2"></path><path d="M1676.93 581.15C1674.15 621.39 1654.18 643.4 1617.03 647.17L1614.71 582.14" id="dkAUGElgt"></path><path d="M1659.57 73.02C1654.81 32.96 1633.79 11.95 1596.5 10L1597.37 75.07" id="e5keuAEsDZ"></path><path d="M846.07 416.17L868.17 432.38L838.7 457.43L865.22 475.12L838.7 497.23L865.22 517.86L841.84 544.39L865.22 566.49L841.84 595.97L865.22 615.13" id="aF5ki1FIM"></path><path d="M1555.89 381.39L1577.99 397.6L1548.52 422.66L1575.05 440.34L1548.52 462.45L1575.05 483.08L1551.67 509.61L1575.05 531.72L1551.67 561.19L1575.05 580.35" id="b3E0WVKEm"></path><path d="M834.47 111.83L856.58 128.04L827.1 153.1L853.63 170.78L827.1 192.89L853.63 213.52L830.25 240.05L853.63 262.16L830.25 291.63L853.63 310.79" id="cmNV3n9z9"></path><path d="M1548.89 79.58L1570.99 95.79L1541.52 120.84L1568.05 138.53L1541.52 160.63L1568.05 181.27L1544.66 207.8L1568.05 229.9L1544.66 259.38L1568.05 278.54" id="h60Wk7Sz2"></path></defs><g><g><g><g><use xlink:href="#e3YHfuq6VF" opacity="1" fill-opacity="0" stroke="#000000" stroke-width="1" stroke-opacity="1"></use></g></g><g><g><use xlink:href="#bU49LRxqd" opacity="1" fill-opacity="0" stroke="#000000" stroke-width="5" stroke-opacity="1"></use></g></g><g><g><use xlink:href="#d2BLd9N3bs" opacity="1" fill-opacity="0" stroke="#000000" stroke-width="5" stroke-opacity="1"></use></g></g><g><g><use xlink:href="#kuTAtLWBg" opacity="1" fill-opacity="0" stroke="#000000" stroke-width="5" stroke-opacity="1"></use></g></g><g><g><use xlink:href="#b1YhqnT61w" opacity="1" fill-opacity="0" stroke="#000000" stroke-width="5" stroke-opacity="1"></use></g></g><g><g><use xlink:href="#a26AhCAUUN" opacity="1" fill-opacity="0" stroke="#000000" stroke-width="2" stroke-opacity="1"></use></g></g><g><g><use xlink:href="#a5xlNIyqcg" opacity="1" fill-opacity="0" stroke="#000000" stroke-width="2" stroke-opacity="1"></use></g></g><g><g><use xlink:href="#bFWb6uwz2" opacity="1" fill-opacity="0" stroke="#000000" stroke-width="2" stroke-opacity="1"></use></g></g><g><g><use xlink:href="#dkAUGElgt" opacity="1" fill-opacity="0" stroke="#000000" stroke-width="2" stroke-opacity="1"></use></g></g><g><g><use xlink:href="#e5keuAEsDZ" opacity="1" fill-opacity="0" stroke="#000000" stroke-width="2" stroke-opacity="1"></use></g></g><g><g><use xlink:href="#aF5ki1FIM" opacity="1" fill-opacity="0" stroke="#000000" stroke-width="2" stroke-opacity="1"></use></g></g><g><g><use xlink:href="#b3E0WVKEm" opacity="1" fill-opacity="0" stroke="#000000" stroke-width="2" stroke-opacity="1"></use></g></g><g><g><use xlink:href="#cmNV3n9z9" opacity="1" fill-opacity="0" stroke="#000000" stroke-width="2" stroke-opacity="1"></use></g></g><g><g><use xlink:href="#h60Wk7Sz2" opacity="1" fill-opacity="0" stroke="#000000" stroke-width="2" stroke-opacity="1"></use></g></g></g></g></svg>